<svg width="175.57999999999998" height="35" viewBox="0 0 175.57999999999998 35" xmlns="http://www.w3.org/2000/svg">
  <defs></defs>
  <rect class="svg__rect" x="0" y="0" width="113.25" height="35" fill="#31C4F3"></rect>
  <rect class="svg__rect" x="111.25" y="0" width="64.32999999999998" height="35" fill="#389AD5"></rect>
  <path class="svg__text" d="M16.67 22L14.22 22L14.22 13.47L16.74 13.47Q17.87 13.47 18.74 13.97Q19.62 14.48 20.10 15.40Q20.58 16.33 20.58 17.52L20.58 17.52L20.58 17.95Q20.58 19.16 20.10 20.08Q19.61 21.00 18.72 21.50Q17.83 22 16.67 22L16.67 22ZM15.70 14.66L15.70 20.82L16.67 20.82Q17.83 20.82 18.46 20.09Q19.08 19.36 19.09 17.99L19.09 17.99L19.09 17.52Q19.09 16.13 18.49 15.40Q17.89 14.66 16.74 14.66L16.74 14.66L15.70 14.66ZM24.78 18.00L24.78 18.00L24.78 17.52Q24.78 16.28 25.22 15.32Q25.66 14.37 26.47 13.86Q27.27 13.35 28.31 13.35Q29.36 13.35 30.16 13.85Q30.97 14.35 31.41 15.29Q31.85 16.23 31.85 17.48L31.85 17.48L31.85 17.96Q31.85 19.21 31.42 20.16Q30.99 21.10 30.18 21.61Q29.38 22.12 28.33 22.12L28.33 22.12Q27.29 22.12 26.48 21.61Q25.67 21.10 25.22 20.17Q24.78 19.23 24.78 18.00ZM26.26 17.46L26.26 17.96Q26.26 19.36 26.81 20.13Q27.35 20.90 28.33 20.90L28.33 20.90Q29.31 20.90 29.84 20.15Q30.37 19.40 30.37 17.96L30.37 17.96L30.37 17.51Q30.37 16.09 29.84 15.34Q29.30 14.58 28.31 14.58L28.31 14.58Q27.35 14.58 26.81 15.33Q26.27 16.09 26.26 17.46L26.26 17.46ZM37.70 22L35.73 13.47L37.20 13.47L38.53 19.88L40.16 13.47L41.40 13.47L43.01 19.89L44.32 13.47L45.79 13.47L43.82 22L42.41 22L40.78 15.77L39.13 22L37.70 22ZM51.35 22L49.87 22L49.87 13.47L51.35 13.47L55.16 19.54L55.16 13.47L56.63 13.47L56.63 22L55.15 22L51.35 15.95L51.35 22ZM66.73 22L61.37 22L61.37 13.47L62.86 13.47L62.86 20.82L66.73 20.82L66.73 22ZM71.63 22L70.09 22L73.31 13.47L74.64 13.47L77.87 22L76.33 22L75.63 20.01L72.32 20.01L71.63 22ZM73.98 15.28L72.74 18.82L75.21 18.82L73.98 15.28ZM81.56 18.00L81.56 18.00L81.56 17.52Q81.56 16.28 82.00 15.32Q82.44 14.37 83.25 13.86Q84.06 13.35 85.10 13.35Q86.14 13.35 86.95 13.85Q87.75 14.35 88.19 15.29Q88.63 16.23 88.64 17.48L88.64 17.48L88.64 17.96Q88.64 19.21 88.20 20.16Q87.77 21.10 86.96 21.61Q86.16 22.12 85.11 22.12L85.11 22.12Q84.07 22.12 83.26 21.61Q82.45 21.10 82.01 20.17Q81.56 19.23 81.56 18.00ZM83.04 17.46L83.04 17.96Q83.04 19.36 83.59 20.13Q84.14 20.90 85.11 20.90L85.11 20.90Q86.09 20.90 86.62 20.15Q87.15 19.40 87.15 17.96L87.15 17.96L87.15 17.51Q87.15 16.09 86.62 15.34Q86.08 14.58 85.10 14.58L85.10 14.58Q84.14 14.58 83.60 15.33Q83.05 16.09 83.04 17.46L83.04 17.46ZM95.56 22L93.10 22L93.10 13.47L95.62 13.47Q96.75 13.47 97.63 13.97Q98.50 14.48 98.98 15.40Q99.47 16.33 99.47 17.52L99.47 17.52L99.47 17.95Q99.47 19.16 98.98 20.08Q98.50 21.00 97.60 21.50Q96.71 22 95.56 22L95.56 22ZM94.58 14.66L94.58 20.82L95.55 20.82Q96.72 20.82 97.34 20.09Q97.97 19.36 97.98 17.99L97.98 17.99L97.98 17.52Q97.98 16.13 97.37 15.40Q96.77 14.66 95.62 14.66L95.62 14.66L94.58 14.66Z" fill="#FFFFFF"></path>
  <text style="fill: rgb(255, 255, 255); font-family: Arial, sans-serif; font-weight: 700; text-anchor: middle; text-transform: lowercase; white-space: pre; font-size: 15px;" x="145.311" y="23.068">
    v0.1
  </text>
</svg>
